<svg id="experience" xmlns="http://www.w3.org/2000/svg" width="59.144" height="62.673" viewBox="0 0 59.144 62.673">
  <path id="Path_3" data-name="Path 3" d="M147.6,57.993l-1.06.384a4.993,4.993,0,0,0-3.185,3.736L142.991,64a3.179,3.179,0,0,0,3.122,3.777H155.3a3.179,3.179,0,0,0,3.13-3.739l-.335-1.875a4.982,4.982,0,0,0-3.2-3.8l-1.124-.407V56.3a.913.913,0,0,0-.011-.136,4.505,4.505,0,0,0,1.289-3.137V50.561a4.369,4.369,0,0,0-8.738,0v2.545a4.357,4.357,0,0,0,1.287,3.083.912.912,0,0,0-.008.113Zm8.692,4.491.335,1.875a1.343,1.343,0,0,1-1.323,1.579h-9.188a1.342,1.342,0,0,1-1.319-1.6l.36-1.885a3.147,3.147,0,0,1,2.008-2.355l.694-.252c.017.018.035.036.054.052a4.235,4.235,0,0,0,5.552,0,.908.908,0,0,0,.08-.08l.732.266A3.14,3.14,0,0,1,156.288,62.484Zm-8.135-11.923a2.531,2.531,0,0,1,4.983-.63c-.118.058-.239.112-.363.162a3.052,3.052,0,0,1-2.3.209.918.918,0,0,0-1.054,1.5,3.04,3.04,0,0,0,1.752.472,6.109,6.109,0,0,0,2.05-.39v1.142a2.659,2.659,0,0,1-.8,1.885,2.566,2.566,0,0,1-.791.531l-.06.025a2.37,2.37,0,0,1-.936.168,2.545,2.545,0,0,1-2.483-2.532Zm2.447,6.912h.084a4.259,4.259,0,0,0,1.256-.189v1.469a2.4,2.4,0,0,1-2.508,0V57.288A4.309,4.309,0,0,0,150.6,57.474Z" transform="translate(-127.202 -40.539)" fill="#02A9F7"/>
  <path id="Path_4" data-name="Path 4" d="M81.682,337.74h28.591a.918.918,0,0,0,0-1.836H81.682a.918.918,0,0,0,0,1.836Z" transform="translate(-72.642 -294.786)" fill="#02A9F7"/>
  <path id="Path_5" data-name="Path 5" d="M81.682,378.181h28.591a.918.918,0,1,0,0-1.836H81.682a.918.918,0,1,0,0,1.836Z" transform="translate(-72.642 -330.277)" fill="#02A9F7"/>
  <path id="Path_6" data-name="Path 6" d="M81.682,418.62h28.591a.918.918,0,1,0,0-1.836H81.682a.918.918,0,1,0,0,1.836Z" transform="translate(-72.642 -365.766)" fill="#02A9F7"/>
  <path id="Path_7" data-name="Path 7" d="M81.682,459.061h28.591a.918.918,0,1,0,0-1.836H81.682a.918.918,0,1,0,0,1.836Z" transform="translate(-72.642 -401.257)" fill="#02A9F7"/>
  <path id="Path_8" data-name="Path 8" d="M80.764,255.942a.918.918,0,0,0,.918.918h28.591a.918.918,0,1,0,0-1.836H81.682a.918.918,0,0,0-.918.918Z" transform="translate(-72.642 -223.807)" fill="#02A9F7"/>
  <path id="Path_9" data-name="Path 9" d="M81.682,297.3h28.591a.918.918,0,1,0,0-1.836H81.682a.918.918,0,0,0,0,1.836Z" transform="translate(-72.642 -259.297)" fill="#02A9F7"/>
  <path id="Path_10" data-name="Path 10" d="M53.963,337.719a.921.921,0,1,0-.922-.921A.922.922,0,0,0,53.963,337.719Z" transform="translate(-48.313 -294.762)" fill="#02A9F7"/>
  <path id="Path_11" data-name="Path 11" d="M53.963,256.839a.922.922,0,1,0-.922-.921A.922.922,0,0,0,53.963,256.839Z" transform="translate(-48.313 -223.782)" fill="#02A9F7"/>
  <path id="Path_12" data-name="Path 12" d="M53.963,297.279a.922.922,0,1,0-.922-.922A.922.922,0,0,0,53.963,297.279Z" transform="translate(-48.313 -259.272)" fill="#02A9F7"/>
  <path id="Path_13" data-name="Path 13" d="M53.963,378.159a.922.922,0,1,0-.922-.922A.922.922,0,0,0,53.963,378.159Z" transform="translate(-48.313 -330.252)" fill="#02A9F7"/>
  <path id="Path_14" data-name="Path 14" d="M53.963,418.6a.921.921,0,1,0-.922-.921A.921.921,0,0,0,53.963,418.6Z" transform="translate(-48.313 -365.742)" fill="#02A9F7"/>
  <path id="Path_15" data-name="Path 15" d="M53.963,459.04a.921.921,0,1,0-.922-.921A.921.921,0,0,0,53.963,459.04Z" transform="translate(-48.313 -401.232)" fill="#02A9F7"/>
  <path id="Path_16" data-name="Path 16" d="M72.1,14.459a6.347,6.347,0,0,1-.89-1.32,6.692,6.692,0,0,1-.331-1.639,5.12,5.12,0,0,0-1.139-3.158A5.122,5.122,0,0,0,66.579,7.2a6.693,6.693,0,0,1-1.639-.331,6.341,6.341,0,0,1-1.32-.89,6.916,6.916,0,0,0-2.194-1.324V4.382A4.387,4.387,0,0,0,57.044,0H18.8a4.387,4.387,0,0,0-4.382,4.382V7.925a.918.918,0,1,0,1.836,0V4.382A2.549,2.549,0,0,1,18.8,1.836H57.044A2.549,2.549,0,0,1,59.59,4.382V4.66A6.918,6.918,0,0,0,57.4,5.983a6.349,6.349,0,0,1-1.32.89,6.7,6.7,0,0,1-1.639.331,5.121,5.121,0,0,0-3.158,1.139A5.12,5.12,0,0,0,50.14,11.5a6.693,6.693,0,0,1-.331,1.639,6.342,6.342,0,0,1-.89,1.32,5.151,5.151,0,0,0-1.463,3.111,5.152,5.152,0,0,0,1.463,3.111,6.347,6.347,0,0,1,.89,1.32,6.691,6.691,0,0,1,.331,1.639A5.12,5.12,0,0,0,51.279,26.8a5.121,5.121,0,0,0,3.158,1.139c.322.04.634.079.922.133V41.947a1.41,1.41,0,0,0,2.279,1.11l1.952-1.528V58.292a2.549,2.549,0,0,1-2.546,2.546H18.8a2.549,2.549,0,0,1-2.546-2.546V11.968a.918.918,0,1,0-1.836,0V58.292A4.387,4.387,0,0,0,18.8,62.673H57.044a4.387,4.387,0,0,0,4.382-4.382V41.529l1.952,1.528a1.411,1.411,0,0,0,2.28-1.11V31.7a.918.918,0,1,0-1.836,0v9.371l-2.44-1.911a1.411,1.411,0,0,0-1.743,0l-2.443,1.913V29l.2.158a5.152,5.152,0,0,0,3.112,1.463,5.153,5.153,0,0,0,3.112-1.463,6.351,6.351,0,0,1,1.32-.89,6.7,6.7,0,0,1,1.639-.331A5.122,5.122,0,0,0,69.737,26.8a5.121,5.121,0,0,0,1.139-3.158A6.7,6.7,0,0,1,71.207,22a6.342,6.342,0,0,1,.89-1.32A5.151,5.151,0,0,0,73.56,17.57,5.152,5.152,0,0,0,72.1,14.459Zm-1.441,5.084A7.691,7.691,0,0,0,69.511,21.3a8.074,8.074,0,0,0-.457,2.117,3.8,3.8,0,0,1-.615,2.085,3.8,3.8,0,0,1-2.085.615,8.077,8.077,0,0,0-2.117.457,7.691,7.691,0,0,0-1.755,1.145,3.788,3.788,0,0,1-1.973,1.068,3.787,3.787,0,0,1-1.973-1.068,7.7,7.7,0,0,0-1.755-1.145c-.044-.018-.2-.077-.231-.087a9.133,9.133,0,0,0-1.886-.37,3.8,3.8,0,0,1-2.085-.615,3.8,3.8,0,0,1-.615-2.084,8.075,8.075,0,0,0-.457-2.117,7.7,7.7,0,0,0-1.145-1.755,3.787,3.787,0,0,1-1.068-1.973A3.786,3.786,0,0,1,50.36,15.6a7.691,7.691,0,0,0,1.145-1.755,8.069,8.069,0,0,0,.457-2.117,3.8,3.8,0,0,1,.615-2.085,3.8,3.8,0,0,1,2.085-.615,8.077,8.077,0,0,0,2.117-.457,7.691,7.691,0,0,0,1.755-1.145A3.8,3.8,0,0,1,60.5,6.356h.007a3.8,3.8,0,0,1,1.97,1.068,7.694,7.694,0,0,0,1.755,1.145,8.072,8.072,0,0,0,2.118.457,3.8,3.8,0,0,1,2.085.615,3.8,3.8,0,0,1,.615,2.085,8.075,8.075,0,0,0,.457,2.117A7.7,7.7,0,0,0,70.656,15.6a3.787,3.787,0,0,1,1.068,1.973A3.786,3.786,0,0,1,70.656,19.543Z" transform="translate(-14.416 0)" fill="#02A9F7"/>
  <path id="Path_17" data-name="Path 17" d="M348.543,90.337l-3.124-.884-1.806-2.7a1.16,1.16,0,0,0-1.927,0l-1.806,2.7-3.124.884a1.16,1.16,0,0,0-.6,1.833l2.008,2.551-.125,3.243A1.159,1.159,0,0,0,339.6,99.1l3.047-1.121L345.7,99.1a1.16,1.16,0,0,0,1.559-1.133l-.125-3.244,2.008-2.551a1.16,1.16,0,0,0-.6-1.833Zm-3.01,3.445a1.162,1.162,0,0,0-.247.761l.1,2.483-2.332-.858a1.161,1.161,0,0,0-.8,0l-2.332.858.1-2.484a1.163,1.163,0,0,0-.248-.761l-1.537-1.953,2.392-.677a1.161,1.161,0,0,0,.647-.471l1.383-2.065,1.383,2.065a1.163,1.163,0,0,0,.648.471l2.391.676Z" transform="translate(-296.557 -75.684)" fill="#02A9F7"/>
</svg>
