<svg xmlns="http://www.w3.org/2000/svg" width="67.002" height="67.016" viewBox="0 0 67.002 67.016">
  <g id="search-icon" transform="translate(-1412 -789)">
    <circle id="Ellipse_1" data-name="Ellipse 1" cx="32" cy="32" r="32" transform="translate(1412 789)" fill="#e7f8f5"/>
    <g id="search" transform="translate(1420.941 798)">
      <path id="Path_18" data-name="Path 18" d="M66.02,38.562a19.446,19.446,0,0,0-32.1,7.326.85.85,0,1,0,1.6.56,17.742,17.742,0,0,1,29.292-6.684A17.742,17.742,0,1,1,34.691,49.949a.85.85,0,1,0-1.685-.225,19.625,19.625,0,0,0,.8,8.67A19.441,19.441,0,0,0,66.02,66.059a19.469,19.469,0,0,0,0-27.5Z" transform="translate(-29.063 -29.143)" fill="#02A9F7"/>
      <path id="Path_19" data-name="Path 19" d="M56.811,50.677,51.846,45.71a.85.85,0,0,0-1.2,1.2l4.966,4.967a2.58,2.58,0,0,1,0,3.643l-.039.039a2.577,2.577,0,0,1-3.644,0L42.366,46,44.2,44.159h0l1.842-1.842,2.246,2.247a.85.85,0,1,0,1.2-1.2l-2.374-2.374a1.519,1.519,0,0,0-2.148,0L43.6,42.355l-3.422-3.423a23.152,23.152,0,1,0-1.2,1.2L42.4,43.558l-1.366,1.367a1.521,1.521,0,0,0,0,2.148l9.688,9.691a4.276,4.276,0,0,0,6.048,0l.039-.039a4.281,4.281,0,0,0,0-6.047ZM8.034,38.348a21.459,21.459,0,1,1,15.177,6.288A21.5,21.5,0,0,1,8.034,38.348Z" transform="translate(0)" fill="#02A9F7"/>
      <path id="Path_20" data-name="Path 20" d="M105.14,89.882h-2.274a2,2,0,0,0-2,2v1.56H98.132a1.846,1.846,0,0,0-1.844,1.844v7.777a1.846,1.846,0,0,0,1.844,1.844h11.74a1.846,1.846,0,0,0,1.844-1.844V95.284a1.846,1.846,0,0,0-1.844-1.844h-2.735V91.88A2,2,0,0,0,105.14,89.882Zm-2.573,2a.3.3,0,0,1,.3-.3h2.274a.3.3,0,0,1,.3.3v1.56h-2.871V91.88Zm7.45,3.4v7.777a.145.145,0,0,1-.145.145H98.132a.145.145,0,0,1-.145-.145V95.284a.145.145,0,0,1,.145-.145h11.74A.145.145,0,0,1,110.017,95.284Z" transform="translate(-85.325 -79.697)" fill="#02A9F7"/>
      <path id="Path_21" data-name="Path 21" d="M262.731,124.292H256.6a.85.85,0,0,0,0,1.7h6.127a.85.85,0,1,0,0-1.7Z" transform="translate(-226.722 -110.208)" fill="#02A9F7"/>
      <path id="Path_22" data-name="Path 22" d="M223.4,84.217h-6.853a.85.85,0,0,0,0,1.7H223.4a.85.85,0,1,0,0-1.7Z" transform="translate(-191.208 -74.674)" fill="#02A9F7"/>
      <path id="Path_23" data-name="Path 23" d="M264.539,164.368H256.6a.85.85,0,0,0,0,1.7h7.935a.85.85,0,1,0,0-1.7Z" transform="translate(-226.722 -145.743)" fill="#02A9F7"/>
      <path id="Path_24" data-name="Path 24" d="M264.539,207.461H256.6a.85.85,0,0,0,0,1.7h7.935a.85.85,0,1,0,0-1.7Z" transform="translate(-226.722 -183.953)" fill="#02A9F7"/>
      <path id="Path_25" data-name="Path 25" d="M79.43,245.661a.85.85,0,0,0,.85.85H106.4a.85.85,0,1,0,0-1.7H80.28A.85.85,0,0,0,79.43,245.661Z" transform="translate(-70.377 -217.071)" fill="#02A9F7"/>
      <path id="Path_26" data-name="Path 26" d="M127.186,283.01a.85.85,0,0,0-.85-.85H106.052a.85.85,0,1,0,0,1.7h20.284A.85.85,0,0,0,127.186,283.01Z" transform="translate(-93.229 -250.188)" fill="#02A9F7"/>
      <path id="Path_27" data-name="Path 27" d="M159.626,319.509a.85.85,0,0,0,0,1.7h8.143a.85.85,0,1,0,0-1.7Z" transform="translate(-140.732 -283.305)" fill="#02A9F7"/>
    </g>
  </g>
</svg>
