<svg xmlns="http://www.w3.org/2000/svg" width="66" height="66" viewBox="0 0 66 66">
  <g id="teamwork" transform="translate(0 -0.001)">
    <path id="Path_137" data-name="Path 137" d="M31.59,384.7h2.066v1.945H31.59Zm0,0" transform="translate(-27.517 -335.112)" fill="#085da5"/>
    <path id="Path_138" data-name="Path 138" d="M191.883,384.7h2.066v1.945h-2.066Zm0,0" transform="translate(-167.148 -335.112)" fill="#085da5"/>
    <path id="Path_139" data-name="Path 139" d="M304.09,384.7h2.066v1.945H304.09Zm0,0" transform="translate(-264.891 -335.112)" fill="#085da5"/>
    <path id="Path_140" data-name="Path 140" d="M464.383,384.7h2.066v1.945h-2.066Zm0,0" transform="translate(-404.521 -335.112)" fill="#085da5"/>
    <path id="Path_141" data-name="Path 141" d="M192.352,64.556c0,1.766.851,5.105,4.072,5.105h8.265c3.221,0,4.072-3.339,4.072-5.105a8.215,8.215,0,0,0-4.878-7.5,5.105,5.105,0,1,0-6.654,0A8.214,8.214,0,0,0,192.352,64.556Zm8.2-6.259a6.232,6.232,0,0,1,1.582.2l-1.582,1.582L198.975,58.5A6.232,6.232,0,0,1,200.557,58.3Zm-3.16-5.105a3.16,3.16,0,1,1,3.16,3.16A3.164,3.164,0,0,1,197.4,53.192Zm-.317,6.163,3.477,3.477,3.477-3.478a6.256,6.256,0,0,1,2.782,5.2,5.665,5.665,0,0,1-.34,1.766,1.8,1.8,0,0,1-1.787,1.4h-8.265a1.8,1.8,0,0,1-1.787-1.4,5.666,5.666,0,0,1-.34-1.763,6.257,6.257,0,0,1,2.782-5.2Zm0,0" transform="translate(-167.556 -41.887)" fill="#085da5"/>
    <path id="Path_142" data-name="Path 142" d="M56.1,321.028c0,1.765.851,5.1,4.072,5.1h8.265c3.221,0,4.072-3.339,4.072-5.1a8.215,8.215,0,0,0-4.878-7.5,5.106,5.106,0,1,0-6.654,0A8.216,8.216,0,0,0,56.1,321.028Zm8.2-6.26a6.255,6.255,0,0,1,1.582.2l-1.582,1.582-1.582-1.582A6.231,6.231,0,0,1,64.306,314.769Zm-3.16-5.105a3.16,3.16,0,1,1,3.16,3.16A3.163,3.163,0,0,1,61.147,309.663Zm-.318,6.163,3.477,3.477,3.477-3.477a6.254,6.254,0,0,1,2.782,5.2,5.667,5.667,0,0,1-.34,1.766,1.8,1.8,0,0,1-1.787,1.4H60.174a1.8,1.8,0,0,1-1.787-1.4,5.668,5.668,0,0,1-.34-1.763,6.257,6.257,0,0,1,2.782-5.2Zm0,0" transform="translate(-48.869 -265.298)" fill="#085da5"/>
    <path id="Path_143" data-name="Path 143" d="M328.6,321.028c0,1.765.851,5.1,4.072,5.1h8.265c3.221,0,4.072-3.339,4.072-5.1a8.216,8.216,0,0,0-4.878-7.5,5.105,5.105,0,1,0-6.654,0A8.215,8.215,0,0,0,328.6,321.028Zm8.2-6.26a6.255,6.255,0,0,1,1.582.2l-1.582,1.582-1.582-1.582A6.228,6.228,0,0,1,336.807,314.769Zm-3.16-5.105a3.16,3.16,0,1,1,3.16,3.16A3.163,3.163,0,0,1,333.646,309.663Zm-.317,6.163,3.477,3.477,3.477-3.478a6.256,6.256,0,0,1,2.782,5.2,5.67,5.67,0,0,1-.34,1.766,1.8,1.8,0,0,1-1.787,1.4h-8.265a1.8,1.8,0,0,1-1.787-1.4,5.664,5.664,0,0,1-.34-1.763,6.258,6.258,0,0,1,2.782-5.2Zm0,0" transform="translate(-286.243 -265.298)" fill="#085da5"/>
    <path id="Path_144" data-name="Path 144" d="M50.564,35.128a15.4,15.4,0,0,0-11.513,5.166H33.973V34.979A17.5,17.5,0,1,0,22.06,3.84l1.217,1.518A15.388,15.388,0,0,1,33,1.946,15.558,15.558,0,1,1,21.332,7.213L19.873,5.926A17.5,17.5,0,0,0,32.028,34.979v5.314H26.95a15.425,15.425,0,0,0-20.335-2.4l1.113,1.6A13.507,13.507,0,1,1,5.8,41.122L4.411,39.761a15.437,15.437,0,1,0,26.463,10.8,15.348,15.348,0,0,0-2.443-8.326H37.57a15.434,15.434,0,0,0,23.8,19.352L60.006,60.2a13.475,13.475,0,1,1,1.631-1.928l1.6,1.113A15.438,15.438,0,0,0,50.564,35.128Zm0,0" fill="#085da5"/>
    <path id="Path_145" data-name="Path 145" d="M151.809,128.234h2.067v1.945h-2.067Zm0,0" transform="translate(-132.24 -111.703)" fill="#085da5"/>
    <path id="Path_146" data-name="Path 146" d="M344.16,128.234h2.067v1.945H344.16Zm0,0" transform="translate(-299.795 -111.703)" fill="#085da5"/>
  </g>
</svg>
