<svg id="time" xmlns="http://www.w3.org/2000/svg" width="62" height="62" viewBox="0 0 62 62">
  <path id="XMLID_1030_" d="M55.385,11.86H57.3a1.21,1.21,0,0,0,0-2.42H52.7a1.21,1.21,0,0,0-1.21,1.21v4.6a1.21,1.21,0,1,0,2.42,0V13.916A28.58,28.58,0,1,1,31,2.42a29.01,29.01,0,0,1,3.487.21,1.21,1.21,0,0,0,.292-2.4A31.44,31.44,0,0,0,31,0,31,31,0,0,0,9.08,52.92,31,31,0,0,0,55.385,11.86Z" fill="#e12523"/>
  <path id="XMLID_1029_" d="M70.418,75.567a1.211,1.211,0,0,0-1.67.375,23.107,23.107,0,1,0,7.233-7.218,1.21,1.21,0,0,0,1.29,2.048,20.7,20.7,0,1,1-3.612,32.153,20.827,20.827,0,0,1-2.866-25.688A1.211,1.211,0,0,0,70.418,75.567Z" transform="translate(-57.291 -57.292)" fill="#e12523"/>
  <path id="XMLID_1028_" d="M377.379,248.75h1.492a1.21,1.21,0,0,0,0-2.42h-1.492a1.21,1.21,0,1,0,0,2.42Z" transform="translate(-330.647 -216.521)" fill="#e12523"/>
  <path id="XMLID_1004_" d="M103.835,247.216a1.21,1.21,0,0,0,1.21,1.21h1.492a1.21,1.21,0,1,0,0-2.42h-1.492A1.21,1.21,0,0,0,103.835,247.216Z" transform="translate(-91.269 -216.236)" fill="#e12523"/>
  <path id="XMLID_1001_" d="M248.75,106.537v-1.492a1.21,1.21,0,0,0-2.42,0v1.492a1.21,1.21,0,0,0,2.42,0Z" transform="translate(-216.521 -91.269)" fill="#e12523"/>
  <path id="XMLID_1415_" d="M246.006,377.379v1.492a1.21,1.21,0,1,0,2.42,0v-1.492a1.21,1.21,0,1,0-2.42,0Z" transform="translate(-216.236 -330.647)" fill="#e12523"/>
  <path id="XMLID_996_" d="M191.038,159.009a1.21,1.21,0,1,0-1.712,1.712l4.1,4.1a4.169,4.169,0,1,0,7.352,0l8.275-8.275a1.21,1.21,0,1,0-1.712-1.712l-8.275,8.275a4.16,4.16,0,0,0-3.929,0Zm7.814,7.777a1.749,1.749,0,1,1-1.749-1.749A1.751,1.751,0,0,1,198.853,166.787Z" transform="translate(-166.104 -135.787)" fill="#e12523"/>
  <path id="XMLID_980_" d="M120.244,120.244a1.21,1.21,0,1,0-.856.355A1.215,1.215,0,0,0,120.244,120.244Z" transform="translate(-103.877 -103.877)" fill="#e12523"/>
  <path id="XMLID_979_" d="M316.648,12.3a1.211,1.211,0,1,0-.855-.355A1.215,1.215,0,0,0,316.648,12.3Z" transform="translate(-277.265 -8.683)" fill="#e12523"/>
</svg>
